<?xml version="1.0" encoding="UTF-8"?> <svg xmlns="http://www.w3.org/2000/svg" viewBox="0 0 170.05 50"> <defs> <style>.cls-1{fill:#767676;}.cls-2{fill:#ffd51b;}</style> </defs> <g id="Слой_2" data-name="Слой 2"> <g id="Слой_1-2" data-name="Слой 1"> <path class="cls-1" d="M28.85,30.61c.16-.05.32-.16.48-.21a13.73,13.73,0,0,0,6.19-5.51,15.93,15.93,0,0,0,2.14-8.54,17.59,17.59,0,0,0-2.14-8.66A14.3,14.3,0,0,0,29.43,2a22.37,22.37,0,0,0-9.67-2H16.29A16.32,16.32,0,0,0,0,16.29V50H10.58V32.32h7.74L27.78,50H39.42Zm-4.28-9.35a7.69,7.69,0,0,1-5.45,2.24H10.79a.24.24,0,0,1-.27-.22V15.86a7.71,7.71,0,0,1,7.7-7.69h.9a7.71,7.71,0,0,1,7.7,7.69A8.06,8.06,0,0,1,24.57,21.26Z"></path> <path class="cls-2" d="M74.36.21h71.69a24,24,0,0,1,24,24V26a24,24,0,0,1-24,24H50.32V24.25a24,24,0,0,1,24-24Z"></path> <path class="cls-1" d="M76.87,26.44h-13a4.48,4.48,0,0,0,1.49,2.73,4.69,4.69,0,0,0,3.1,1,5.31,5.31,0,0,0,3.9-1.6l3.42,1.6a8.19,8.19,0,0,1-3,2.67,9.59,9.59,0,0,1-4.22.86A8.22,8.22,0,0,1,60,25.81c0-.16,0-.32,0-.49a8.47,8.47,0,0,1,2.35-6.09,7.85,7.85,0,0,1,5.93-2.4,8.46,8.46,0,0,1,6.2,2.4,8.68,8.68,0,0,1,2.4,6.41Zm-4.06-3.2a3.92,3.92,0,0,0-1.6-2.19,4.61,4.61,0,0,0-2.73-.86,4.94,4.94,0,0,0-2.94,1,5.81,5.81,0,0,0-1.49,2.09Z"></path> <path class="cls-1" d="M80.13,17.25h4.06v1.66a12.08,12.08,0,0,1,2.46-1.6,6.89,6.89,0,0,1,2.29-.48A5.48,5.48,0,0,1,93,18.48a5.67,5.67,0,0,1,1.39,4.22V33.33h-4v-7a18.33,18.33,0,0,0-.26-3.84A2.46,2.46,0,0,0,89.21,21a2.6,2.6,0,0,0-1.6-.48,3.15,3.15,0,0,0-2.09.8,4.39,4.39,0,0,0-1.23,2.25,17,17,0,0,0-.16,3.26v6.46h-4Z"></path> <path class="cls-1" d="M110.15,17.25h4V31c0,2.72-.54,4.7-1.66,6-1.44,1.76-3.69,2.62-6.62,2.62a11.1,11.1,0,0,1-4-.59,7.12,7.12,0,0,1-4.38-4.54H102a3.53,3.53,0,0,0,1.55,1,5.65,5.65,0,0,0,2.19.38,6.18,6.18,0,0,0,2.61-.48,3.18,3.18,0,0,0,1.39-1.28,6.86,6.86,0,0,0,.43-2.73A7.27,7.27,0,0,1,107.91,33a7.47,7.47,0,0,1-2.68.48,7,7,0,0,1-5.44-2.35,8.38,8.38,0,0,1-2.25-5.93A8.11,8.11,0,0,1,100,19a6.9,6.9,0,0,1,5.12-2.09,6.22,6.22,0,0,1,2.62.54,8.92,8.92,0,0,1,2.46,1.65ZM106,20.62a4.19,4.19,0,0,0-3.15,1.28,4.33,4.33,0,0,0-1.23,3.21,4.55,4.55,0,0,0,1.28,3.31,4.3,4.3,0,0,0,3.21,1.28,4,4,0,0,0,3.1-1.28,4.54,4.54,0,0,0,1.23-3.31,4.35,4.35,0,0,0-1.23-3.26A4.3,4.3,0,0,0,106,20.62Z"></path> <path class="cls-1" d="M117.84,11.06h4.06V33.39h-4.06Z"></path> <path class="cls-1" d="M127.08,10.63a2.58,2.58,0,0,1,1.82.75,2.61,2.61,0,0,1,0,3.68,2.5,2.5,0,0,1-1.82.75,2.37,2.37,0,0,1-1.81-.8,2.66,2.66,0,0,1-.75-1.87A2.58,2.58,0,0,1,127.08,10.63Zm-2,6.62h4.06V33.39h-4.06Z"></path> <path class="cls-1" d="M142.63,19.5,140.12,22a4.19,4.19,0,0,0-2.78-1.5,2,2,0,0,0-1.07.27A.94.94,0,0,0,136,22c.06.05.06.1.11.1a4.32,4.32,0,0,0,1.23.75l1.5.75A8.76,8.76,0,0,1,142,26a4.91,4.91,0,0,1-.69,6.41,6.08,6.08,0,0,1-4.22,1.44,6.75,6.75,0,0,1-5.67-2.8l2.46-2.72a5.6,5.6,0,0,0,1.66,1.33,3.86,3.86,0,0,0,1.71.54,2,2,0,0,0,1.28-.38,1,1,0,0,0,.48-.9c0-.64-.59-1.23-1.76-1.82L136,26.34c-2.62-1.34-3.9-2.94-3.9-4.92a4.31,4.31,0,0,1,1.5-3.26,5.29,5.29,0,0,1,3.74-1.33A6.68,6.68,0,0,1,142.63,19.5Z"></path> <path class="cls-1" d="M146.1,11.06h4v7.85a8.11,8.11,0,0,1,2.4-1.55,6.4,6.4,0,0,1,2.4-.53,5.33,5.33,0,0,1,4,1.65,5.67,5.67,0,0,1,1.39,4.22V33.39h-3.95V26.28a18.6,18.6,0,0,0-.27-3.79,2.4,2.4,0,0,0-2.51-2,2.92,2.92,0,0,0-2.08.8,4,4,0,0,0-1.23,2.25,16.7,16.7,0,0,0-.16,3.31v6.46h-4Z"></path> </g> </g> </svg> 