<?xml version="1.0" encoding="utf-8"?><svg viewBox="0 0 560 340" xmlns="http://www.w3.org/2000/svg" xmlns:xlink="http://www.w3.org/1999/xlink"><style>:root>svg{display:none}:root>svg:target{display:block}</style><svg viewBox="0 0 70 70" id="play" xmlns="http://www.w3.org/2000/svg"><circle cx="35" cy="35" r="34"/><path d="M35 0C15.672 0 0 15.672 0 35s15.672 35 35 35 35-15.672 35-35S54.328 0 35 0zm11.258 35.54L29.195 47.952a.626.626 0 01-.992-.508V22.633a.624.624 0 01.992-.508l17.063 12.406a.619.619 0 010 1.008z"/></svg><svg viewBox="0 0 339 340" id="v" xmlns="http://www.w3.org/2000/svg"><path d="M221.53 0H117.47C22.511 0 0 22.577 0 117.817v104.366C0 317.423 22.511 340 117.47 340h104.06C316.488 340 339 317.423 339 222.183V117.817C339 22.577 316.267 0 221.53 0z"/><path d="M270.798 104.888c-3.98-14.248-11.862-25.503-23.406-33.465-14.569-10.077-31.327-13.63-45.796-15.805-20.023-2.993-38.155-3.412-55.451-1.297-16.201 1.996-28.401 5.169-39.527 10.297-21.814 10.058-34.91 26.322-38.91 48.332-1.951 10.696-3.265 20.355-4.021 29.574-1.752 21.313-.16 40.171 4.856 57.652 4.896 17.042 13.435 29.215 26.113 37.217 3.224 2.035 7.364 3.512 11.365 4.929 2.269.798 4.478 1.577 6.289 2.434 1.672.779 1.672.919 1.652 2.315-.139 12.113 0 35.86 0 35.86l.04 5.069h9.076l1.473-1.437c.975-.918 23.465-22.709 31.486-31.489l1.095-1.218c1.373-1.596 1.373-1.596 2.786-1.616a968.185 968.185 0 0032.88-1.237c13.315-.719 28.74-2.016 43.269-8.082 13.296-5.568 23.008-14.408 28.84-26.262 6.091-12.372 9.693-25.762 11.046-40.948 2.389-26.701.697-49.869-5.155-70.823zm-47.886 103.829c-3.344 5.448-8.32 9.239-14.192 11.694-4.298 1.796-8.677 1.416-12.917-.379-35.487-15.067-63.331-38.794-81.722-72.918-3.801-7.024-6.428-14.687-9.454-22.11-.617-1.517-.577-3.313-.855-4.989.258-11.994 9.434-18.758 18.708-20.794 3.543-.798 6.688.46 9.315 2.993 7.284 6.945 13.037 15.027 17.375 24.087 1.892 3.971 1.036 7.483-2.189 10.436a29 29 0 01-2.11 1.736c-7.364 5.548-8.438 9.759-4.517 18.12 6.687 14.229 17.793 23.787 32.143 29.714 3.782 1.556 7.345.778 10.23-2.295.398-.399.836-.798 1.114-1.277 5.653-9.459 13.873-8.521 21.456-3.133 4.976 3.552 9.812 7.304 14.729 10.915 7.503 5.528 7.443 10.717 2.886 18.2zm-47.071-94.41c-1.672 0-3.344.14-4.996.42-2.786.458-5.393-1.417-5.872-4.211a5.102 5.102 0 014.2-5.867 39.243 39.243 0 016.668-.559c22.072 0 40.025 18 40.025 40.131 0 2.255-.18 4.51-.557 6.685a5.102 5.102 0 01-5.016 4.27c-.279 0-.558-.019-.856-.079-2.767-.46-4.637-3.094-4.18-5.867.279-1.636.419-3.313.419-5.009 0-16.484-13.396-29.914-29.835-29.914zm24.74 30.652c0 2.814-2.29 5.109-5.096 5.109-2.807 0-5.095-2.295-5.095-5.109 0-8.441-6.866-15.326-15.286-15.326-2.806 0-5.095-2.295-5.095-5.108 0-2.814 2.289-5.109 5.095-5.109 14.052 0 25.477 11.454 25.477 25.543zm29.097 11.355a5.1 5.1 0 01-4.975 3.971c-.378 0-.757-.04-1.135-.12a5.131 5.131 0 01-3.841-6.126 45.419 45.419 0 001.114-10.018c0-24.825-20.161-45.04-44.921-45.04-3.383 0-6.747.38-9.991 1.118-2.746.639-5.473-1.097-6.09-3.851a5.086 5.086 0 013.841-6.107 54.55 54.55 0 0112.24-1.377c30.392 0 55.112 24.785 55.112 55.257 0 4.151-.458 8.282-1.354 12.293z"/></svg><svg viewBox="0 0 560 300" id="vk" xmlns="http://www.w3.org/2000/svg"><g clip-path="url(#ca)"><path d="M560 0H0v300h560V0z"/><path opacity=".12" d="M562.074 224.245l-24.024 6.113c-9.102 2.316-13.747-4.211-34.352-16.682-17.738-10.209-24.504-10.442-28.01-9.55-4.954 1.261-6.004 3.019-4.27 9.833l5.54 21.772c1.486 5.841.548 9.813-14.862 13.733-25.483 6.485-57.691-1.776-84.843-25.526-40.636-34.588-56.859-64.111-58.522-70.647-.894-3.515-.335-7.159 6.398-8.872l24.076-6.126c6.092-1.55 9.123.672 13.155 6.603 20.674 31.439 48.183 56.589 56.364 54.508 3.019-.769 4.06-2.524 2.093-10.251l-9.058-35.6c-5.099-16.185-14.072-15.404-15.556-21.233-.715-2.811.887-6.211 4.599-7.156l37.863-9.634c5.119-1.303 7.716 1.03 9.255 7.076l12.22 48.026c1.319 5.186 4.103 6.433 5.5 6.077 3.019-.768 5.138-3.262 9.303-10.308 12.343-23.848 17.102-56.988 17.102-56.988.719-3.927 2.685-7.929 8.777-9.479l24.076-6.126c7.218-1.837 9.78 1.477 9.485 7.073.555 14.813-18.297 64.019-18.297 64.019-1.463 4.856-1.968 6.939 2.734 10.746 3.48 2.858 13.744 8.011 21.002 13.123 13.272 9.102 23.686 16.922 27.528 23.19 4.086 6.15 1.485 10.555-5.309 12.284l.033.002z"/></g><defs><clipPath id="ca"><path d="M0 0h560v300H0z"/></clipPath></defs></svg><svg viewBox="0 0 339 340" id="vkon" xmlns="http://www.w3.org/2000/svg"><path d="M221.53 0H117.47C22.511 0 0 22.577 0 117.817v104.366C0 317.423 22.511 340 117.47 340h104.06C316.488 340 339 317.423 339 222.183V117.817C339 22.577 316.267 0 221.53 0zm52.141 242.539h-24.609c-9.322 0-12.193-7.415-28.963-24.457-14.565-14.163-21.017-16.043-24.608-16.043-5.075 0-6.515 1.434-6.515 8.414v22.301c0 5.982-1.875 9.574-17.659 9.574-26.102 0-55.065-15.832-75.372-45.325-30.626-43.222-39.005-75.595-39.005-82.289 0-3.601 1.43-6.969 8.326-6.969h24.661c6.24 0 8.613 2.879 11.039 9.572 12.193 35.306 32.5 66.234 40.88 66.234 3.093 0 4.524-1.433 4.524-9.349v-36.464c-.944-16.818-9.768-18.264-9.768-24.234 0-2.88 2.373-5.759 6.176-5.759h38.783c5.244 0 7.171 2.879 7.171 9.073v49.192c0 5.313 2.373 7.194 3.804 7.194 3.092 0 5.741-1.881 11.472-7.64 17.713-19.921 30.403-50.637 30.403-50.637 1.653-3.601 4.524-6.97 10.763-6.97h24.661c7.394 0 9.048 3.815 7.394 9.126-3.092 14.386-33.273 57.109-33.273 57.109-2.596 4.313-3.591 6.194 0 11.007 2.648 3.601 11.261 11.07 16.992 17.764 10.54 12.006 18.644 22.078 20.806 29.048 2.425 6.917-1.156 10.518-8.115 10.518l.032.01z"/><path d="M273.731 242.794h-24.608c-9.323 0-12.194-7.415-28.963-24.457-14.566-14.163-21.017-16.043-24.609-16.043-5.074 0-6.515 1.434-6.515 8.414v22.301c0 5.982-1.875 9.574-17.659 9.574-26.102 0-55.065-15.832-75.372-45.325C65.379 154.036 57 121.663 57 114.969c0-3.601 1.43-6.969 8.326-6.969h24.662c6.24 0 8.612 2.879 11.038 9.572 12.194 35.306 32.501 66.234 40.881 66.234 3.092 0 4.523-1.433 4.523-9.349v-36.464c-.943-16.818-9.767-18.264-9.767-24.234 0-2.88 2.373-5.759 6.175-5.759h38.783c5.244 0 7.171 2.879 7.171 9.073v49.192c0 5.313 2.373 7.194 3.804 7.194 3.093 0 5.742-1.881 11.473-7.64 17.712-19.921 30.402-50.637 30.402-50.637 1.654-3.601 4.524-6.97 10.764-6.97h24.661c7.394 0 9.047 3.815 7.394 9.126-3.093 14.386-33.274 57.109-33.274 57.109-2.595 4.313-3.591 6.194 0 11.007 2.649 3.601 11.261 11.07 16.992 17.764 10.54 12.006 18.644 22.078 20.806 29.048 2.425 6.917-1.156 10.518-8.115 10.518l.032.01z"/></svg><svg viewBox="0 0 339 340" id="w" xmlns="http://www.w3.org/2000/svg"><path d="M221.53 0H117.47C22.511 0 0 22.577 0 117.817v104.366C0 317.423 22.511 340 117.47 340h104.06C316.488 340 339 317.423 339 222.183V117.817C339 22.577 316.267 0 221.53 0z"/><path d="M268.65 108.417c-34.705-53.419-105.56-69.3-160.508-36.094-53.503 33.207-70.855 105.395-36.15 158.814l2.891 4.331-11.568 43.313 43.381-11.55 4.338 2.887C129.832 280.225 150.076 286 170.321 286c21.69 0 43.38-5.775 62.178-17.325 53.503-34.651 69.409-105.395 36.151-160.258zm-30.367 111.17c-5.784 8.662-13.014 14.437-23.136 15.881-5.784 0-13.014 2.887-41.934-8.663-24.583-11.549-44.827-30.319-59.287-51.975-8.676-10.106-13.014-23.1-14.46-36.094 0-11.55 4.338-21.656 11.568-28.875 2.892-2.887 5.784-4.331 8.676-4.331h7.23c2.892 0 5.784 0 7.23 5.775 2.892 7.219 10.122 24.544 10.122 25.987 1.446 1.444 1.446 4.332 0 5.775 1.446 2.888 0 5.776-1.446 7.22-1.446 1.443-2.892 4.331-4.338 5.775-2.892 1.443-4.338 4.331-2.892 7.218 5.784 8.663 13.014 17.325 20.245 24.544 8.676 7.219 17.352 12.994 27.474 17.325 2.892 1.444 5.784 1.444 7.229-1.443 1.447-2.888 8.677-10.107 11.569-12.995 2.892-2.887 4.338-2.887 7.23-1.443l23.136 11.55c2.892 1.444 5.785 2.888 7.23 4.331 1.447 4.332 1.447 10.107-1.446 14.438z"/></svg></svg>