<?xml version="1.0" encoding="utf-8"?><svg viewBox="0 0 560 300" xmlns="http://www.w3.org/2000/svg" xmlns:xlink="http://www.w3.org/1999/xlink"><style>:root>svg{display:none}:root>svg:target{display:block}</style><svg viewBox="0 0 70 70" id="play" xmlns="http://www.w3.org/2000/svg"><circle cx="35" cy="35" r="34"/><path d="M35 0C15.672 0 0 15.672 0 35s15.672 35 35 35 35-15.672 35-35S54.328 0 35 0zm11.258 35.54L29.195 47.952a.626.626 0 01-.992-.508V22.633a.624.624 0 01.992-.508l17.063 12.406a.619.619 0 010 1.008z"/></svg><svg viewBox="0 0 560 300" id="vk" xmlns="http://www.w3.org/2000/svg"><g clip-path="url(#ba)"><path d="M560 0H0v300h560V0z"/><path opacity=".12" d="M562.074 224.245l-24.024 6.113c-9.102 2.316-13.747-4.211-34.352-16.682-17.738-10.209-24.504-10.442-28.01-9.55-4.954 1.261-6.004 3.019-4.27 9.833l5.54 21.772c1.486 5.841.548 9.813-14.862 13.733-25.483 6.485-57.691-1.776-84.843-25.526-40.636-34.588-56.859-64.111-58.522-70.647-.894-3.515-.335-7.159 6.398-8.872l24.076-6.126c6.092-1.55 9.123.672 13.155 6.603 20.674 31.439 48.183 56.589 56.364 54.508 3.019-.769 4.06-2.524 2.093-10.251l-9.058-35.6c-5.099-16.185-14.072-15.404-15.556-21.233-.715-2.811.887-6.211 4.599-7.156l37.863-9.634c5.119-1.303 7.716 1.03 9.255 7.076l12.22 48.026c1.319 5.186 4.103 6.433 5.5 6.077 3.019-.768 5.138-3.262 9.303-10.308 12.343-23.848 17.102-56.988 17.102-56.988.719-3.927 2.685-7.929 8.777-9.479l24.076-6.126c7.218-1.837 9.78 1.477 9.485 7.073.555 14.813-18.297 64.019-18.297 64.019-1.463 4.856-1.968 6.939 2.734 10.746 3.48 2.858 13.744 8.011 21.002 13.123 13.272 9.102 23.686 16.922 27.528 23.19 4.086 6.15 1.485 10.555-5.309 12.284l.033.002z"/></g><defs><clipPath id="ba"><path d="M0 0h560v300H0z"/></clipPath></defs></svg></svg>