<?xml version="1.0" encoding="UTF-8"?> <svg xmlns="http://www.w3.org/2000/svg" width="339" height="340" viewBox="0 0 339 340" fill="none"> <path d="M221.53 0H117.47C22.511 0 0 22.5774 0 117.817V222.183C0 317.423 22.511 340 117.47 340H221.53C316.488 340 339 317.423 339 222.183V117.817C339 22.5774 316.267 0 221.53 0Z" fill="#FFD51B"></path> <path d="M270.798 104.888C266.818 90.6403 258.936 79.3854 247.392 71.4231C232.823 61.3456 216.065 57.7935 201.596 55.6184C181.573 52.625 163.441 52.206 146.145 54.3212C129.944 56.3168 117.744 59.4897 106.618 64.6183C84.8038 74.6758 71.7076 90.9396 67.7071 112.95C65.7566 123.646 64.443 133.305 63.6867 142.524C61.9352 163.837 63.5274 182.695 68.543 200.176C73.4392 217.218 81.9776 229.391 94.6559 237.393C97.8802 239.428 102.02 240.905 106.021 242.322C108.29 243.12 110.499 243.899 112.31 244.756C113.982 245.535 113.982 245.675 113.962 247.071C113.823 259.184 113.962 282.931 113.962 282.931L114.002 288H123.078L124.551 286.563C125.526 285.645 148.016 263.854 156.037 255.074L157.132 253.856C158.505 252.26 158.505 252.26 159.918 252.24C170.745 252.02 181.812 251.602 192.798 251.003C206.113 250.284 221.538 248.987 236.067 242.921C249.363 237.353 259.075 228.513 264.907 216.659C270.998 204.287 274.6 190.897 275.953 175.711C278.342 149.01 276.65 125.842 270.798 104.888ZM222.912 208.717C219.568 214.165 214.592 217.956 208.72 220.411C204.422 222.207 200.043 221.827 195.803 220.032C160.316 204.965 132.472 181.238 114.081 147.114C110.28 140.09 107.653 132.427 104.627 125.004C104.01 123.487 104.05 121.691 103.772 120.015C104.03 108.021 113.206 101.257 122.48 99.2211C126.023 98.4229 129.168 99.6801 131.795 102.214C139.079 109.159 144.832 117.241 149.17 126.301C151.062 130.272 150.206 133.784 146.981 136.737C146.305 137.356 145.608 137.915 144.871 138.473C137.507 144.021 136.433 148.232 140.354 156.593C147.041 170.822 158.147 180.38 172.497 186.307C176.279 187.863 179.842 187.085 182.727 184.012C183.125 183.613 183.563 183.214 183.841 182.735C189.494 173.276 197.714 174.214 205.297 179.602C210.273 183.154 215.109 186.906 220.026 190.517C227.529 196.045 227.469 201.234 222.912 208.717ZM175.841 114.307C174.169 114.307 172.497 114.447 170.845 114.727C168.059 115.185 165.452 113.31 164.973 110.516C164.516 107.742 166.386 105.108 169.173 104.649C171.362 104.27 173.612 104.09 175.841 104.09C197.913 104.09 215.866 122.09 215.866 144.221C215.866 146.476 215.686 148.731 215.309 150.906C214.89 153.4 212.741 155.176 210.293 155.176C210.014 155.176 209.735 155.157 209.437 155.097C206.67 154.637 204.8 152.003 205.257 149.23C205.536 147.594 205.676 145.917 205.676 144.221C205.676 127.737 192.28 114.307 175.841 114.307ZM200.581 144.959C200.581 147.773 198.291 150.068 195.485 150.068C192.678 150.068 190.39 147.773 190.39 144.959C190.39 136.518 183.524 129.633 175.104 129.633C172.298 129.633 170.009 127.338 170.009 124.525C170.009 121.711 172.298 119.416 175.104 119.416C189.156 119.416 200.581 130.87 200.581 144.959ZM229.678 156.314C229.141 158.688 227.032 160.285 224.703 160.285C224.325 160.285 223.946 160.245 223.568 160.165C220.822 159.527 219.11 156.793 219.727 154.039C220.464 150.786 220.841 147.414 220.841 144.021C220.841 119.196 200.68 98.9817 175.92 98.9817C172.537 98.9817 169.173 99.3608 165.929 100.099C163.183 100.738 160.456 99.0016 159.839 96.2478C159.202 93.4939 160.933 90.76 163.68 90.1414C167.661 89.2234 171.78 88.7644 175.92 88.7644C206.312 88.7644 231.032 113.549 231.032 144.021C231.032 148.172 230.574 152.303 229.678 156.314Z" fill="#767676"></path> </svg> 