<?xml version="1.0" encoding="UTF-8"?> <svg xmlns="http://www.w3.org/2000/svg" width="560" height="300" viewBox="0 0 560 300" fill="none"> <g clip-path="url(#clip0)"> <path d="M560 0H0V300H560V0Z" fill="#FFD51B"></path> <path opacity="0.12" d="M562.074 224.245L538.05 230.358C528.948 232.674 524.303 226.147 503.698 213.676C485.96 203.467 479.194 203.234 475.688 204.126C470.734 205.387 469.684 207.145 471.418 213.959L476.958 235.731C478.444 241.572 477.506 245.544 462.096 249.464C436.613 255.949 404.405 247.688 377.253 223.938C336.617 189.35 320.394 159.827 318.731 153.291C317.837 149.776 318.396 146.132 325.129 144.419L349.205 138.293C355.297 136.743 358.328 138.965 362.36 144.896C383.034 176.335 410.543 201.485 418.724 199.404C421.743 198.635 422.784 196.88 420.817 189.153L411.759 153.553C406.66 137.368 397.687 138.149 396.203 132.32C395.488 129.509 397.09 126.109 400.802 125.164L438.665 115.53C443.784 114.227 446.381 116.56 447.92 122.606L460.14 170.632C461.459 175.818 464.243 177.065 465.64 176.709C468.659 175.941 470.778 173.447 474.943 166.401C487.286 142.553 492.045 109.413 492.045 109.413C492.764 105.486 494.73 101.484 500.822 99.9341L524.898 93.808C532.116 91.9712 534.678 95.2848 534.383 100.881C534.938 115.694 516.086 164.9 516.086 164.9C514.623 169.756 514.118 171.839 518.82 175.646C522.3 178.504 532.564 183.657 539.822 188.769C553.094 197.871 563.508 205.691 567.35 211.959C571.436 218.109 568.835 222.514 562.041 224.243L562.074 224.245Z" fill="#4E4E4E"></path> </g> <defs> <clipPath id="clip0"> <rect width="560" height="300" fill="white"></rect> </clipPath> </defs> </svg> 