<?xml version="1.0" encoding="UTF-8"?> <svg xmlns="http://www.w3.org/2000/svg" width="339" height="340" viewBox="0 0 339 340" fill="none"> <path d="M221.53 0H117.47C22.511 0 0 22.5774 0 117.817V222.183C0 317.423 22.511 340 117.47 340H221.53C316.488 340 339 317.423 339 222.183V117.817C339 22.5774 316.267 0 221.53 0ZM273.671 242.539H249.062C239.74 242.539 236.869 235.124 220.099 218.082C205.534 203.919 199.082 202.039 195.491 202.039C190.416 202.039 188.976 203.473 188.976 210.453V232.754C188.976 238.736 187.101 242.328 171.317 242.328C145.215 242.328 116.252 226.496 95.9446 197.003C65.319 153.781 56.9396 121.408 56.9396 114.714C56.9396 111.113 58.3697 107.745 65.266 107.745H89.9275C96.167 107.745 98.5396 110.624 100.966 117.317C113.159 152.623 133.466 183.551 141.846 183.551C144.939 183.551 146.37 182.118 146.37 174.202V137.738C145.426 120.92 136.602 119.474 136.602 113.504C136.602 110.624 138.975 107.745 142.778 107.745H181.561C186.805 107.745 188.732 110.624 188.732 116.818V166.01C188.732 171.323 191.105 173.204 192.536 173.204C195.628 173.204 198.277 171.323 204.008 165.564C221.721 145.643 234.411 114.927 234.411 114.927C236.064 111.326 238.935 107.957 245.174 107.957H269.835C277.229 107.957 278.883 111.772 277.229 117.083C274.137 131.469 243.956 174.192 243.956 174.192C241.36 178.505 240.365 180.386 243.956 185.199C246.604 188.8 255.217 196.269 260.948 202.963C271.488 214.969 279.592 225.041 281.754 232.011C284.179 238.928 280.598 242.529 273.639 242.529L273.671 242.539Z" fill="#FFD51B"></path> <path d="M273.731 242.794H249.123C239.8 242.794 236.929 235.379 220.16 218.337C205.594 204.174 199.143 202.294 195.551 202.294C190.477 202.294 189.036 203.728 189.036 210.708V233.009C189.036 238.991 187.161 242.583 171.377 242.583C145.275 242.583 116.312 226.751 96.005 197.258C65.3794 154.036 57 121.663 57 114.969C57 111.368 58.4301 108 65.3264 108H89.9879C96.2274 108 98.6 110.879 101.026 117.572C113.22 152.878 133.527 183.806 141.907 183.806C144.999 183.806 146.43 182.373 146.43 174.457V137.993C145.487 121.175 136.663 119.729 136.663 113.759C136.663 110.879 139.036 108 142.838 108H181.621C186.865 108 188.792 110.879 188.792 117.073V166.265C188.792 171.578 191.165 173.459 192.596 173.459C195.689 173.459 198.338 171.578 204.069 165.819C221.781 145.898 234.471 115.182 234.471 115.182C236.125 111.581 238.995 108.212 245.235 108.212H269.896C277.29 108.212 278.943 112.027 277.29 117.338C274.197 131.724 244.016 174.447 244.016 174.447C241.421 178.76 240.425 180.641 244.016 185.454C246.665 189.055 255.277 196.524 261.008 203.218C271.548 215.224 279.652 225.296 281.814 232.266C284.239 239.183 280.658 242.784 273.699 242.784L273.731 242.794Z" fill="#767676"></path> </svg> 