<?xml version="1.0" encoding="UTF-8"?> <svg xmlns="http://www.w3.org/2000/svg" width="339" height="340" viewBox="0 0 339 340" fill="none"> <path d="M221.53 0H117.47C22.511 0 0 22.5774 0 117.817V222.183C0 317.423 22.511 340 117.47 340H221.53C316.488 340 339 317.423 339 222.183V117.817C339 22.5774 316.267 0 221.53 0Z" fill="#FFD51B"></path> <path d="M268.65 108.417C233.945 54.9982 163.09 39.1169 108.142 72.3233C54.6393 105.53 37.2871 177.718 71.9915 231.137L74.8835 235.468L63.3154 278.781L106.696 267.231L111.034 270.118C129.832 280.225 150.076 286 170.321 286C192.011 286 213.701 280.225 232.499 268.675C286.002 234.024 301.908 163.28 268.65 108.417ZM238.283 219.587C232.499 228.249 225.269 234.024 215.147 235.468C209.363 235.468 202.133 238.355 173.213 226.805C148.63 215.256 128.386 196.486 113.926 174.83C105.25 164.724 100.912 151.73 99.4658 138.736C99.4658 127.186 103.804 117.08 111.034 109.861C113.926 106.974 116.818 105.53 119.71 105.53H126.94C129.832 105.53 132.724 105.53 134.17 111.305C137.062 118.524 144.292 135.849 144.292 137.292C145.738 138.736 145.738 141.624 144.292 143.067C145.738 145.955 144.292 148.843 142.846 150.287C141.4 151.73 139.954 154.618 138.508 156.062C135.616 157.505 134.17 160.393 135.616 163.28C141.4 171.943 148.63 180.605 155.861 187.824C164.537 195.043 173.213 200.818 183.335 205.149C186.227 206.593 189.119 206.593 190.564 203.706C192.011 200.818 199.241 193.599 202.133 190.711C205.025 187.824 206.471 187.824 209.363 189.268L232.499 200.818C235.391 202.262 238.284 203.706 239.729 205.149C241.176 209.481 241.176 215.256 238.283 219.587Z" fill="#767676"></path> </svg> 